<svg width="46" height="46" viewBox="0 0 46 46" fill="none" xmlns="http://www.w3.org/2000/svg">
<path fill-rule="evenodd" clip-rule="evenodd" d="M23 44C34.598 44 44 34.598 44 23C44 11.402 34.598 2 23 2C11.402 2 2 11.402 2 23C2 34.598 11.402 44 23 44ZM23 46C35.7025 46 46 35.7025 46 23C46 10.2975 35.7025 0 23 0C10.2975 0 0 10.2975 0 23C0 35.7025 10.2975 46 23 46Z" />
<path fill-rule="evenodd" clip-rule="evenodd" d="M19 21V19C19 16.7909 20.7909 15 23 15C25.2091 15 27 16.7909 27 19V21C28.1046 21 29 21.8954 29 23V29C29 30.1046 28.1046 31 27 31H19C17.8954 31 17 30.1046 17 29V23C17 21.8954 17.8954 21 19 21ZM25 19V21H21V19C21 17.8954 21.8954 17 23 17C24.1046 17 25 17.8954 25 19ZM27 23H19L19 29H27V23Z" />
</svg>
